<?xml version="1.0" encoding="UTF-8" standalone="no"?>
<!DOCTYPE svg PUBLIC "-//W3C//DTD SVG 1.1//EN" "http://www.w3.org/Graphics/SVG/1.1/DTD/svg11.dtd">
<svg width="100%" height="100%" viewBox="0 0 2160 2160" version="1.1" xmlns="http://www.w3.org/2000/svg" xmlns:xlink="http://www.w3.org/1999/xlink" xml:space="preserve" xmlns:serif="http://www.serif.com/" style="fill-rule:evenodd;clip-rule:evenodd;stroke-linejoin:round;stroke-miterlimit:2;">
    <g transform="matrix(6.52374,0,0,6.52374,-6905.06,-4947.93)">
        <g transform="matrix(2.26955,0,0,2,-266.073,-900)">
            <rect x="656.551" y="840" width="63.449" height="72" style="fill:rgb(0,255,101);"/>
        </g>
        <g transform="matrix(2.26955,0,0,2,-410.073,-756)">
            <rect x="656.551" y="840" width="63.449" height="72" style="fill:rgb(0,255,101);"/>
        </g>
        <g transform="matrix(1.2,0,0,1.2,259.2,-26.4)">
            <circle cx="804" cy="792" r="60" style="fill:rgb(255,230,0);"/>
        </g>
        <g transform="matrix(1,0,0,1,-176.096,-154.5)">
            <g transform="matrix(0.479167,0,0,0.479167,1020.5,837)">
                <g transform="matrix(0.981153,0,0,1.12657,-143.922,-127.367)">
                    <rect x="936.557" y="496.523" width="34.033" height="127.822" style="fill:rgb(97,97,97);"/>
                </g>
                <g transform="matrix(6.00783e-17,0.981153,-1.12657,6.89824e-17,1423.37,-431.922)">
                    <rect x="936.557" y="496.523" width="34.033" height="127.822" style="fill:rgb(97,97,97);"/>
                </g>
            </g>
            <g transform="matrix(1.6,0,0,1.2,-819.354,-145.2)">
                <circle cx="1387" cy="991" r="5" style="fill:rgb(97,97,97);"/>
            </g>
            <g transform="matrix(9.79717e-17,1.6,-1.2,7.34788e-17,2623.39,-1140.85)">
                <circle cx="1387" cy="991" r="5" style="fill:rgb(97,97,97);"/>
            </g>
            <g transform="matrix(9.79717e-17,1.6,-1.2,7.34788e-17,2555.2,-1140.85)">
                <circle cx="1387" cy="991" r="5" style="fill:rgb(97,97,97);"/>
            </g>
            <g transform="matrix(1.6,0,0,1.2,-819.354,-76.2)">
                <circle cx="1387" cy="991" r="5" style="fill:rgb(97,97,97);"/>
            </g>
        </g>
    </g>
</svg>
